<svg width="1440" height="1699" viewBox="0 0 1440 1699" fill="none" xmlns="http://www.w3.org/2000/svg">
<mask id="mask0_277_9190" style="mask-type:alpha" maskUnits="userSpaceOnUse" x="0" y="0" width="1440" height="1699">
<rect width="1440" height="1699" fill="#D9D9D9"/>
</mask>
<g mask="url(#mask0_277_9190)">
<line x1="68.3344" y1="14" x2="68.3344" y2="1559" stroke="white" stroke-opacity="0.5" stroke-width="0.668893"/>
<line x1="1440" y1="14.3344" x2="-8" y2="14.3344" stroke="white" stroke-opacity="0.5" stroke-width="0.668893"/>
<line x1="1440" y1="100.334" x2="-8" y2="100.334" stroke="white" stroke-opacity="0.5" stroke-width="0.668893"/>
<line x1="1440" y1="185.334" x2="-8" y2="185.334" stroke="white" stroke-opacity="0.5" stroke-width="0.668893"/>
<line x1="1440" y1="271.334" x2="-8" y2="271.334" stroke="white" stroke-opacity="0.5" stroke-width="0.668893"/>
<line x1="1440" y1="357.334" x2="-8" y2="357.334" stroke="white" stroke-opacity="0.5" stroke-width="0.668893"/>
<line x1="1440" y1="442.334" x2="-8" y2="442.334" stroke="white" stroke-opacity="0.5" stroke-width="0.668893"/>
<line x1="1440" y1="528.334" x2="-8" y2="528.334" stroke="white" stroke-opacity="0.5" stroke-width="0.668893"/>
<line x1="1440" y1="613.334" x2="-8" y2="613.334" stroke="white" stroke-opacity="0.5" stroke-width="0.668893"/>
<line x1="1440" y1="699.334" x2="-8" y2="699.334" stroke="white" stroke-opacity="0.5" stroke-width="0.668893"/>
<line x1="1440" y1="784.334" x2="-8" y2="784.334" stroke="white" stroke-opacity="0.5" stroke-width="0.668893"/>
<line x1="1440" y1="871.334" x2="-8" y2="871.334" stroke="white" stroke-opacity="0.5" stroke-width="0.668893"/>
<line x1="1440" y1="956.334" x2="-8" y2="956.334" stroke="white" stroke-opacity="0.5" stroke-width="0.668893"/>
<line x1="1440" y1="1042.33" x2="-8" y2="1042.33" stroke="white" stroke-opacity="0.5" stroke-width="0.668893"/>
<line x1="1440" y1="1127.33" x2="-8" y2="1127.33" stroke="white" stroke-opacity="0.5" stroke-width="0.668893"/>
<line x1="1440" y1="1213.33" x2="-8" y2="1213.33" stroke="white" stroke-opacity="0.5" stroke-width="0.668893"/>
<line x1="1440" y1="1298.33" x2="-8" y2="1298.33" stroke="white" stroke-opacity="0.5" stroke-width="0.668893"/>
<line x1="1440" y1="1384.33" x2="-8" y2="1384.33" stroke="white" stroke-opacity="0.5" stroke-width="0.668893"/>
<line x1="1440" y1="1470.33" x2="-8" y2="1470.33" stroke="white" stroke-opacity="0.5" stroke-width="0.668893"/>
<line x1="153.334" y1="14" x2="153.334" y2="1548" stroke="white" stroke-opacity="0.5" stroke-width="0.668893"/>
<line x1="239.334" y1="14" x2="239.334" y2="1548" stroke="white" stroke-opacity="0.5" stroke-width="0.668893"/>
<line x1="325.334" y1="14" x2="325.334" y2="1548" stroke="white" stroke-opacity="0.5" stroke-width="0.668893"/>
<line x1="410.334" y1="14" x2="410.334" y2="1548" stroke="white" stroke-opacity="0.5" stroke-width="0.668893"/>
<line x1="496.334" y1="14" x2="496.334" y2="1548" stroke="white" stroke-opacity="0.5" stroke-width="0.668893"/>
<line x1="581.334" y1="14" x2="581.334" y2="1548" stroke="white" stroke-opacity="0.5" stroke-width="0.668893"/>
<line x1="667.334" y1="14" x2="667.334" y2="1548" stroke="white" stroke-opacity="0.5" stroke-width="0.668893"/>
<line x1="753.334" y1="14" x2="753.334" y2="1559" stroke="white" stroke-opacity="0.5" stroke-width="0.668893"/>
<line x1="838.334" y1="14" x2="838.334" y2="1548" stroke="white" stroke-opacity="0.5" stroke-width="0.668893"/>
<line x1="924.334" y1="14" x2="924.334" y2="1548" stroke="white" stroke-opacity="0.5" stroke-width="0.668893"/>
<line x1="1010.33" y1="14" x2="1010.33" y2="1548" stroke="white" stroke-opacity="0.5" stroke-width="0.668893"/>
<line x1="1095.33" y1="14" x2="1095.33" y2="1548" stroke="white" stroke-opacity="0.5" stroke-width="0.668893"/>
<line x1="1181.33" y1="14" x2="1181.33" y2="1548" stroke="white" stroke-opacity="0.5" stroke-width="0.668893"/>
<line x1="1266.33" y1="14" x2="1266.33" y2="1548" stroke="white" stroke-opacity="0.5" stroke-width="0.668893"/>
<line x1="1352.33" y1="14" x2="1352.33" y2="1548" stroke="white" stroke-opacity="0.5" stroke-width="0.668893"/>
<line x1="1010.33" y1="14" x2="1010.33" y2="1300" stroke="white" stroke-opacity="0.5" stroke-width="0.668893"/>
<circle cx="67.9438" cy="99.6191" r="4.01336" fill="#808080"/>
<circle cx="153.562" cy="99.6191" r="4.01336" fill="#808080"/>
<circle cx="239.18" cy="99.6191" r="4.01336" fill="#808080"/>
<circle cx="324.798" cy="99.6191" r="4.01336" fill="#808080"/>
<circle cx="410.416" cy="99.6191" r="4.01336" fill="#808080"/>
<circle cx="496.035" cy="99.6191" r="4.01336" fill="#808080"/>
<circle cx="581.653" cy="99.6191" r="4.01336" fill="#808080"/>
<circle cx="667.271" cy="99.6191" r="4.01336" fill="#808080"/>
<circle cx="752.89" cy="99.6191" r="4.01336" fill="#808080"/>
<circle cx="838.508" cy="99.6191" r="4.01336" fill="#808080"/>
<circle cx="924.126" cy="99.6191" r="4.01336" fill="#808080"/>
<circle cx="67.9438" cy="185.237" r="4.01336" fill="#808080"/>
<circle cx="153.562" cy="185.237" r="4.01336" fill="#808080"/>
<circle cx="239.18" cy="185.237" r="4.01336" fill="#808080"/>
<circle cx="324.798" cy="185.237" r="4.01336" fill="#808080"/>
<circle cx="410.417" cy="185.237" r="4.01336" fill="#808080"/>
<circle cx="496.035" cy="185.237" r="4.01336" fill="#808080"/>
<circle cx="581.653" cy="185.237" r="4.01336" fill="#808080"/>
<circle cx="667.271" cy="185.237" r="4.01336" fill="#808080"/>
<circle cx="752.89" cy="185.237" r="4.01336" fill="#808080"/>
<circle cx="838.508" cy="185.237" r="4.01336" fill="#808080"/>
<circle cx="924.126" cy="185.237" r="4.01336" fill="#808080"/>
<circle cx="67.9438" cy="270.856" r="4.01336" fill="#808080"/>
<circle cx="153.562" cy="270.856" r="4.01336" fill="#808080"/>
<circle cx="239.18" cy="270.856" r="4.01336" fill="#808080"/>
<circle cx="324.798" cy="270.856" r="4.01336" fill="#808080"/>
<circle cx="410.416" cy="270.856" r="4.01336" fill="#808080"/>
<circle cx="496.035" cy="270.856" r="4.01336" fill="#808080"/>
<circle cx="581.653" cy="270.856" r="4.01336" fill="#808080"/>
<circle cx="667.271" cy="270.856" r="4.01336" fill="#808080"/>
<circle cx="752.89" cy="270.856" r="4.01336" fill="#808080"/>
<circle cx="838.508" cy="270.856" r="4.01336" fill="#808080"/>
<circle cx="924.126" cy="270.856" r="4.01336" fill="#808080"/>
<circle cx="838.467" cy="99.2463" r="4.01336" transform="rotate(90 838.467 99.2463)" fill="#808080"/>
<circle cx="838.467" cy="184.864" r="4.01336" transform="rotate(90 838.467 184.864)" fill="#808080"/>
<circle cx="838.467" cy="270.482" r="4.01336" transform="rotate(90 838.467 270.482)" fill="#808080"/>
<circle cx="838.467" cy="356.101" r="4.01336" transform="rotate(90 838.467 356.101)" fill="#808080"/>
<circle cx="838.467" cy="441.719" r="4.01336" transform="rotate(90 838.467 441.719)" fill="#808080"/>
<circle cx="838.467" cy="527.337" r="4.01336" transform="rotate(90 838.467 527.337)" fill="#808080"/>
<circle cx="838.467" cy="612.956" r="4.01336" transform="rotate(90 838.467 612.956)" fill="#808080"/>
<circle cx="838.467" cy="698.574" r="4.01336" transform="rotate(90 838.467 698.574)" fill="#808080"/>
<circle cx="838.467" cy="784.192" r="4.01336" transform="rotate(90 838.467 784.192)" fill="#808080"/>
<circle cx="838.467" cy="869.81" r="4.01336" transform="rotate(90 838.467 869.81)" fill="#808080"/>
<circle cx="838.467" cy="955.428" r="4.01336" transform="rotate(90 838.467 955.428)" fill="#808080"/>
<circle cx="923.974" cy="99.2463" r="4.01336" transform="rotate(90 923.974 99.2463)" fill="#808080"/>
<circle cx="923.974" cy="184.864" r="4.01336" transform="rotate(90 923.974 184.864)" fill="#808080"/>
<circle cx="923.974" cy="270.482" r="4.01336" transform="rotate(90 923.974 270.482)" fill="#808080"/>
<circle cx="923.974" cy="356.101" r="4.01336" transform="rotate(90 923.974 356.101)" fill="#808080"/>
<circle cx="923.974" cy="441.719" r="4.01336" transform="rotate(90 923.974 441.719)" fill="#808080"/>
<circle cx="923.974" cy="527.337" r="4.01336" transform="rotate(90 923.974 527.337)" fill="#808080"/>
<circle cx="923.974" cy="612.956" r="4.01336" transform="rotate(90 923.974 612.956)" fill="#808080"/>
<circle cx="923.974" cy="698.574" r="4.01336" transform="rotate(90 923.974 698.574)" fill="#808080"/>
<circle cx="923.974" cy="784.192" r="4.01336" transform="rotate(90 923.974 784.192)" fill="#808080"/>
<circle cx="923.974" cy="869.81" r="4.01336" transform="rotate(90 923.974 869.81)" fill="#808080"/>
<circle cx="923.974" cy="955.428" r="4.01336" transform="rotate(90 923.974 955.428)" fill="#808080"/>
<circle cx="1009.48" cy="99.2463" r="4.01336" transform="rotate(90 1009.48 99.2463)" fill="#808080"/>
<circle cx="1009.48" cy="184.864" r="4.01336" transform="rotate(90 1009.48 184.864)" fill="#808080"/>
<circle cx="1009.48" cy="270.482" r="4.01336" transform="rotate(90 1009.48 270.482)" fill="#808080"/>
<circle cx="1009.48" cy="356.101" r="4.01336" transform="rotate(90 1009.48 356.101)" fill="#808080"/>
<circle cx="1009.48" cy="441.719" r="4.01336" transform="rotate(90 1009.48 441.719)" fill="#808080"/>
<circle cx="1009.48" cy="527.337" r="4.01336" transform="rotate(90 1009.48 527.337)" fill="#808080"/>
<circle cx="1009.48" cy="612.956" r="4.01336" transform="rotate(90 1009.48 612.956)" fill="#808080"/>
<circle cx="1009.48" cy="698.574" r="4.01336" transform="rotate(90 1009.48 698.574)" fill="#808080"/>
<circle cx="1009.48" cy="784.192" r="4.01336" transform="rotate(90 1009.48 784.192)" fill="#808080"/>
<circle cx="1009.48" cy="869.81" r="4.01336" transform="rotate(90 1009.48 869.81)" fill="#808080"/>
<circle cx="1009.48" cy="955.748" r="4.01336" transform="rotate(90 1009.48 955.748)" fill="#808080"/>
<circle cx="1009.48" cy="1041.69" r="4.01336" transform="rotate(90 1009.48 1041.69)" fill="#808080"/>
<circle cx="1009.48" cy="1127.62" r="4.01336" transform="rotate(90 1009.48 1127.62)" fill="#808080"/>
<circle cx="1009.48" cy="955.428" r="4.01336" transform="rotate(90 1009.48 955.428)" fill="#808080"/>
<circle cx="1094.99" cy="99.2463" r="4.01336" transform="rotate(90 1094.99 99.2463)" fill="#808080"/>
<circle cx="1094.99" cy="184.864" r="4.01336" transform="rotate(90 1094.99 184.864)" fill="#808080"/>
<circle cx="1094.99" cy="270.482" r="4.01336" transform="rotate(90 1094.99 270.482)" fill="#808080"/>
<circle cx="1094.99" cy="356.101" r="4.01336" transform="rotate(90 1094.99 356.101)" fill="#808080"/>
<circle cx="1094.99" cy="441.719" r="4.01336" transform="rotate(90 1094.99 441.719)" fill="#808080"/>
<circle cx="1094.99" cy="527.337" r="4.01336" transform="rotate(90 1094.99 527.337)" fill="#808080"/>
<circle cx="1094.99" cy="612.956" r="4.01336" transform="rotate(90 1094.99 612.956)" fill="#808080"/>
<circle cx="1094.99" cy="698.574" r="4.01336" transform="rotate(90 1094.99 698.574)" fill="#808080"/>
<circle cx="1094.99" cy="784.192" r="4.01336" transform="rotate(90 1094.99 784.192)" fill="#808080"/>
<circle cx="1094.99" cy="869.81" r="4.01336" transform="rotate(90 1094.99 869.81)" fill="#808080"/>
<circle cx="1094.99" cy="955.428" r="4.01336" transform="rotate(90 1094.99 955.428)" fill="#808080"/>
<circle cx="1180.5" cy="99.2463" r="4.01336" transform="rotate(90 1180.5 99.2463)" fill="#808080"/>
<circle cx="1180.5" cy="184.864" r="4.01336" transform="rotate(90 1180.5 184.864)" fill="#808080"/>
<circle cx="1180.5" cy="270.482" r="4.01336" transform="rotate(90 1180.5 270.482)" fill="#808080"/>
<circle cx="1180.5" cy="356.101" r="4.01336" transform="rotate(90 1180.5 356.101)" fill="#808080"/>
<circle cx="1180.5" cy="441.719" r="4.01336" transform="rotate(90 1180.5 441.719)" fill="#808080"/>
<circle cx="1180.5" cy="527.337" r="4.01336" transform="rotate(90 1180.5 527.337)" fill="#808080"/>
<circle cx="1180.5" cy="612.956" r="4.01336" transform="rotate(90 1180.5 612.956)" fill="#808080"/>
<circle cx="1180.5" cy="698.574" r="4.01336" transform="rotate(90 1180.5 698.574)" fill="#808080"/>
<circle cx="1180.5" cy="784.192" r="4.01336" transform="rotate(90 1180.5 784.192)" fill="#808080"/>
<circle cx="1180.5" cy="869.81" r="4.01336" transform="rotate(90 1180.5 869.81)" fill="#808080"/>
<circle cx="1180.5" cy="955.428" r="4.01336" transform="rotate(90 1180.5 955.428)" fill="#808080"/>
<circle cx="1266.01" cy="99.2463" r="4.01336" transform="rotate(90 1266.01 99.2463)" fill="#808080"/>
<circle cx="1266.01" cy="184.864" r="4.01336" transform="rotate(90 1266.01 184.864)" fill="#808080"/>
<circle cx="1266.01" cy="270.482" r="4.01336" transform="rotate(90 1266.01 270.482)" fill="#808080"/>
<circle cx="1266.01" cy="356.101" r="4.01336" transform="rotate(90 1266.01 356.101)" fill="#808080"/>
<circle cx="1266.01" cy="441.719" r="4.01336" transform="rotate(90 1266.01 441.719)" fill="#808080"/>
<circle cx="1266.01" cy="527.337" r="4.01336" transform="rotate(90 1266.01 527.337)" fill="#808080"/>
<circle cx="1266.01" cy="612.956" r="4.01336" transform="rotate(90 1266.01 612.956)" fill="#808080"/>
<circle cx="1266.01" cy="698.574" r="4.01336" transform="rotate(90 1266.01 698.574)" fill="#808080"/>
<circle cx="1266.01" cy="784.192" r="4.01336" transform="rotate(90 1266.01 784.192)" fill="#808080"/>
<circle cx="1266.01" cy="869.81" r="4.01336" transform="rotate(90 1266.01 869.81)" fill="#808080"/>
<circle cx="1266.01" cy="955.428" r="4.01336" transform="rotate(90 1266.01 955.428)" fill="#808080"/>
<circle cx="1351.51" cy="99.2463" r="4.01336" transform="rotate(90 1351.51 99.2463)" fill="#808080"/>
<circle cx="1351.51" cy="184.864" r="4.01336" transform="rotate(90 1351.51 184.864)" fill="#808080"/>
<circle cx="1351.51" cy="270.482" r="4.01336" transform="rotate(90 1351.51 270.482)" fill="#808080"/>
<circle cx="1351.51" cy="356.101" r="4.01336" transform="rotate(90 1351.51 356.101)" fill="#808080"/>
<circle cx="1351.51" cy="441.719" r="4.01336" transform="rotate(90 1351.51 441.719)" fill="#808080"/>
<circle cx="1351.51" cy="527.337" r="4.01336" transform="rotate(90 1351.51 527.337)" fill="#808080"/>
<circle cx="1351.51" cy="612.956" r="4.01336" transform="rotate(90 1351.51 612.956)" fill="#808080"/>
<circle cx="1351.51" cy="698.574" r="4.01336" transform="rotate(90 1351.51 698.574)" fill="#808080"/>
<circle cx="1351.51" cy="784.192" r="4.01336" transform="rotate(90 1351.51 784.192)" fill="#808080"/>
<circle cx="1351.51" cy="869.81" r="4.01336" transform="rotate(90 1351.51 869.81)" fill="#808080"/>
<circle cx="1351.51" cy="955.428" r="4.01336" transform="rotate(90 1351.51 955.428)" fill="#808080"/>
<circle cx="67.9438" cy="356.474" r="4.01336" fill="#808080"/>
<circle cx="153.562" cy="356.474" r="4.01336" fill="#808080"/>
<circle cx="239.18" cy="356.474" r="4.01336" fill="#808080"/>
<circle cx="324.798" cy="356.474" r="4.01336" fill="#808080"/>
<circle cx="410.417" cy="356.474" r="4.01336" fill="#808080"/>
<circle cx="496.035" cy="356.474" r="4.01336" fill="#808080"/>
<circle cx="581.653" cy="356.474" r="4.01336" fill="#808080"/>
<circle cx="667.271" cy="356.474" r="4.01336" fill="#808080"/>
<circle cx="752.89" cy="356.474" r="4.01336" fill="#808080"/>
<circle cx="838.508" cy="356.474" r="4.01336" fill="#808080"/>
<circle cx="924.126" cy="356.474" r="4.01336" fill="#808080"/>
<circle cx="67.9438" cy="442.092" r="4.01336" fill="#808080"/>
<circle cx="153.562" cy="442.092" r="4.01336" fill="#808080"/>
<circle cx="239.18" cy="442.092" r="4.01336" fill="#808080"/>
<circle cx="324.798" cy="442.092" r="4.01336" fill="#808080"/>
<circle cx="410.417" cy="442.092" r="4.01336" fill="#808080"/>
<circle cx="496.035" cy="442.092" r="4.01336" fill="#808080"/>
<circle cx="581.653" cy="442.092" r="4.01336" fill="#808080"/>
<circle cx="667.271" cy="442.092" r="4.01336" fill="#808080"/>
<circle cx="752.89" cy="442.092" r="4.01336" fill="#808080"/>
<circle cx="838.508" cy="442.092" r="4.01336" fill="#808080"/>
<circle cx="924.126" cy="442.092" r="4.01336" fill="#808080"/>
<circle cx="67.9438" cy="527.71" r="4.01336" fill="#808080"/>
<circle cx="153.562" cy="527.71" r="4.01336" fill="#808080"/>
<circle cx="239.18" cy="527.71" r="4.01336" fill="#808080"/>
<circle cx="324.798" cy="527.71" r="4.01336" fill="#808080"/>
<circle cx="410.417" cy="527.71" r="4.01336" fill="#808080"/>
<circle cx="496.035" cy="527.71" r="4.01336" fill="#808080"/>
<circle cx="581.653" cy="527.71" r="4.01336" fill="#808080"/>
<circle cx="667.271" cy="527.71" r="4.01336" fill="#808080"/>
<circle cx="752.89" cy="527.71" r="4.01336" fill="#808080"/>
<circle cx="838.508" cy="527.71" r="4.01336" fill="#808080"/>
<circle cx="924.126" cy="527.71" r="4.01336" fill="#808080"/>
<circle cx="67.9438" cy="613.328" r="4.01336" fill="#808080"/>
<circle cx="153.562" cy="613.328" r="4.01336" fill="#808080"/>
<circle cx="239.18" cy="613.328" r="4.01336" fill="#808080"/>
<circle cx="324.798" cy="613.328" r="4.01336" fill="#808080"/>
<circle cx="410.417" cy="613.328" r="4.01336" fill="#808080"/>
<circle cx="496.035" cy="613.328" r="4.01336" fill="#808080"/>
<circle cx="581.653" cy="613.328" r="4.01336" fill="#808080"/>
<circle cx="667.271" cy="613.328" r="4.01336" fill="#808080"/>
<circle cx="752.89" cy="613.328" r="4.01336" fill="#808080"/>
<circle cx="838.508" cy="613.328" r="4.01336" fill="#808080"/>
<circle cx="924.126" cy="613.328" r="4.01336" fill="#808080"/>
<circle cx="67.9438" cy="698.947" r="4.01336" fill="#808080"/>
<circle cx="153.562" cy="698.947" r="4.01336" fill="#808080"/>
<circle cx="239.18" cy="698.947" r="4.01336" fill="#808080"/>
<circle cx="324.798" cy="698.947" r="4.01336" fill="#808080"/>
<circle cx="410.417" cy="698.947" r="4.01336" fill="#808080"/>
<circle cx="496.035" cy="698.947" r="4.01336" fill="#808080"/>
<circle cx="581.653" cy="698.947" r="4.01336" fill="#808080"/>
<circle cx="667.271" cy="698.947" r="4.01336" fill="#808080"/>
<circle cx="752.89" cy="698.947" r="4.01336" fill="#808080"/>
<circle cx="838.508" cy="698.947" r="4.01336" fill="#808080"/>
<circle cx="924.126" cy="698.947" r="4.01336" fill="#808080"/>
<circle cx="67.9438" cy="784.565" r="4.01336" fill="#808080"/>
<circle cx="153.562" cy="784.565" r="4.01336" fill="#808080"/>
<circle cx="239.18" cy="784.565" r="4.01336" fill="#808080"/>
<circle cx="324.798" cy="784.565" r="4.01336" fill="#808080"/>
<circle cx="410.417" cy="784.565" r="4.01336" fill="#808080"/>
<circle cx="496.035" cy="784.565" r="4.01336" fill="#808080"/>
<circle cx="581.653" cy="784.565" r="4.01336" fill="#808080"/>
<circle cx="667.271" cy="784.565" r="4.01336" fill="#808080"/>
<circle cx="752.89" cy="784.565" r="4.01336" fill="#808080"/>
<circle cx="838.508" cy="784.565" r="4.01336" fill="#808080"/>
<circle cx="924.126" cy="784.565" r="4.01336" fill="#808080"/>
<circle cx="67.9438" cy="870.183" r="4.01336" fill="#808080"/>
<circle cx="153.562" cy="870.183" r="4.01336" fill="#808080"/>
<circle cx="239.18" cy="870.183" r="4.01336" fill="#808080"/>
<circle cx="324.798" cy="870.183" r="4.01336" fill="#808080"/>
<circle cx="410.417" cy="870.183" r="4.01336" fill="#808080"/>
<circle cx="496.035" cy="870.183" r="4.01336" fill="#808080"/>
<circle cx="581.653" cy="870.183" r="4.01336" fill="#808080"/>
<circle cx="667.271" cy="870.183" r="4.01336" fill="#808080"/>
<circle cx="752.89" cy="870.183" r="4.01336" fill="#808080"/>
<circle cx="838.508" cy="870.183" r="4.01336" fill="#808080"/>
<circle cx="924.126" cy="870.183" r="4.01336" fill="#808080"/>
<circle cx="67.9438" cy="955.802" r="4.01336" fill="#808080"/>
<circle cx="153.562" cy="955.802" r="4.01336" fill="#808080"/>
<circle cx="239.18" cy="955.802" r="4.01336" fill="#808080"/>
<circle cx="324.798" cy="955.802" r="4.01336" fill="#808080"/>
<circle cx="410.417" cy="955.802" r="4.01336" fill="#808080"/>
<circle cx="496.035" cy="955.802" r="4.01336" fill="#808080"/>
<circle cx="581.653" cy="955.802" r="4.01336" fill="#808080"/>
<circle cx="667.271" cy="955.802" r="4.01336" fill="#808080"/>
<circle cx="752.89" cy="955.802" r="4.01336" fill="#808080"/>
<circle cx="838.508" cy="955.802" r="4.01336" fill="#808080"/>
<circle cx="924.126" cy="955.802" r="4.01336" fill="#808080"/>
<circle cx="67.9438" cy="1041.42" r="4.01336" fill="#808080"/>
<circle cx="153.562" cy="1041.42" r="4.01336" fill="#808080"/>
<circle cx="239.18" cy="1041.42" r="4.01336" fill="#808080"/>
<circle cx="324.798" cy="1041.42" r="4.01336" fill="#808080"/>
<circle cx="410.417" cy="1041.42" r="4.01336" fill="#808080"/>
<circle cx="496.035" cy="1041.42" r="4.01336" fill="#808080"/>
<circle cx="581.653" cy="1041.42" r="4.01336" fill="#808080"/>
<circle cx="667.271" cy="1041.42" r="4.01336" fill="#808080"/>
<circle cx="752.89" cy="1041.42" r="4.01336" fill="#808080"/>
<circle cx="838.508" cy="1041.42" r="4.01336" fill="#808080"/>
<circle cx="924.126" cy="1041.42" r="4.01336" fill="#808080"/>
<circle cx="1009.48" cy="1041.42" r="4.01336" fill="#808080"/>
<circle cx="1094.84" cy="1041.42" r="4.01336" fill="#808080"/>
<circle cx="1180.19" cy="1041.42" r="4.01336" fill="#808080"/>
<circle cx="1265.55" cy="1041.42" r="4.01336" fill="#808080"/>
<circle cx="1350.91" cy="1041.42" r="4.01336" fill="#808080"/>
<circle cx="1350.91" cy="955.748" r="4.01336" fill="#808080"/>
<circle cx="67.9438" cy="1127.04" r="4.01336" fill="#808080"/>
<circle cx="153.562" cy="1127.04" r="4.01336" fill="#808080"/>
<circle cx="239.18" cy="1127.04" r="4.01336" fill="#808080"/>
<circle cx="324.798" cy="1127.04" r="4.01336" fill="#808080"/>
<circle cx="410.417" cy="1127.04" r="4.01336" fill="#808080"/>
<circle cx="496.035" cy="1127.04" r="4.01336" fill="#808080"/>
<circle cx="581.653" cy="1127.04" r="4.01336" fill="#808080"/>
<circle cx="667.271" cy="1127.04" r="4.01336" fill="#808080"/>
<circle cx="752.89" cy="1127.04" r="4.01336" fill="#808080"/>
<circle cx="838.508" cy="1127.04" r="4.01336" fill="#808080"/>
<circle cx="924.126" cy="1127.04" r="4.01336" fill="#808080"/>
<circle cx="1009.48" cy="1127.04" r="4.01336" fill="#808080"/>
<circle cx="1009.48" cy="1213.01" r="4.01336" fill="#808080"/>
<circle cx="1094.84" cy="1127.04" r="4.01336" fill="#808080"/>
<circle cx="1180.19" cy="1127.04" r="4.01336" fill="#808080"/>
<circle cx="1265.55" cy="1127.04" r="4.01336" fill="#808080"/>
<circle cx="1350.91" cy="1127.04" r="4.01336" fill="#808080"/>
<circle cx="67.9438" cy="1212.66" r="4.01336" fill="#808080"/>
<circle cx="153.562" cy="1212.66" r="4.01336" fill="#808080"/>
<circle cx="239.18" cy="1212.66" r="4.01336" fill="#808080"/>
<circle cx="324.798" cy="1212.66" r="4.01336" fill="#808080"/>
<circle cx="410.417" cy="1212.66" r="4.01336" fill="#808080"/>
<circle cx="496.035" cy="1212.66" r="4.01336" fill="#808080"/>
<circle cx="581.653" cy="1212.66" r="4.01336" fill="#808080"/>
<circle cx="667.271" cy="1212.66" r="4.01336" fill="#808080"/>
<circle cx="752.89" cy="1212.66" r="4.01336" fill="#808080"/>
<circle cx="838.508" cy="1212.66" r="4.01336" fill="#808080"/>
<circle cx="924.126" cy="1212.66" r="4.01336" fill="#808080"/>
<circle cx="67.9438" cy="1298.27" r="4.01336" fill="#808080"/>
<circle cx="153.562" cy="1298.27" r="4.01336" fill="#808080"/>
<circle cx="239.18" cy="1298.27" r="4.01336" fill="#808080"/>
<circle cx="324.798" cy="1298.27" r="4.01336" fill="#808080"/>
<circle cx="410.417" cy="1298.27" r="4.01336" fill="#808080"/>
<circle cx="496.035" cy="1298.27" r="4.01336" fill="#808080"/>
<circle cx="581.653" cy="1298.27" r="4.01336" fill="#808080"/>
<circle cx="667.271" cy="1298.27" r="4.01336" fill="#808080"/>
<circle cx="752.89" cy="1298.27" r="4.01336" fill="#808080"/>
<circle cx="838.508" cy="1298.27" r="4.01336" fill="#808080"/>
<circle cx="924.126" cy="1298.27" r="4.01336" fill="#808080"/>
<circle cx="67.9438" cy="1383.89" r="4.01336" fill="#808080"/>
<circle cx="153.562" cy="1383.89" r="4.01336" fill="#808080"/>
<circle cx="239.18" cy="1383.89" r="4.01336" fill="#808080"/>
<circle cx="324.798" cy="1383.89" r="4.01336" fill="#808080"/>
<circle cx="410.417" cy="1383.89" r="4.01336" fill="#808080"/>
<circle cx="496.035" cy="1383.89" r="4.01336" fill="#808080"/>
<circle cx="581.653" cy="1383.89" r="4.01336" fill="#808080"/>
<circle cx="667.271" cy="1383.89" r="4.01336" fill="#808080"/>
<circle cx="752.89" cy="1383.89" r="4.01336" fill="#808080"/>
<circle cx="838.508" cy="1383.89" r="4.01336" fill="#808080"/>
<circle cx="924.126" cy="1383.89" r="4.01336" fill="#808080"/>
<circle cx="67.9438" cy="1469.51" r="4.01336" fill="#808080"/>
<circle cx="153.562" cy="1469.51" r="4.01336" fill="#808080"/>
<circle cx="239.18" cy="1469.51" r="4.01336" fill="#808080"/>
<circle cx="324.798" cy="1469.51" r="4.01336" fill="#808080"/>
<circle cx="410.417" cy="1469.51" r="4.01336" fill="#808080"/>
<circle cx="496.035" cy="1469.51" r="4.01336" fill="#808080"/>
<circle cx="581.653" cy="1469.51" r="4.01336" fill="#808080"/>
<circle cx="667.271" cy="1469.51" r="4.01336" fill="#808080"/>
<circle cx="752.89" cy="1469.51" r="4.01336" fill="#808080"/>
<circle cx="838.508" cy="1469.51" r="4.01336" fill="#808080"/>
<circle cx="924.126" cy="1469.51" r="4.01336" fill="#808080"/>
<circle cx="67.9438" cy="1555.06" r="4.01336" fill="#808080"/>
<circle cx="153.562" cy="1555.06" r="4.01336" fill="#808080"/>
<circle cx="239.18" cy="1555.06" r="4.01336" fill="#808080"/>
<circle cx="324.798" cy="1555.06" r="4.01336" fill="#808080"/>
<circle cx="410.417" cy="1555.06" r="4.01336" fill="#808080"/>
<circle cx="496.035" cy="1555.06" r="4.01336" fill="#808080"/>
<circle cx="581.653" cy="1555.06" r="4.01336" fill="#808080"/>
<circle cx="667.271" cy="1555.06" r="4.01336" fill="#808080"/>
<circle cx="752.89" cy="1555.06" r="4.01336" fill="#808080"/>
<circle cx="838.508" cy="1555.06" r="4.01336" fill="#808080"/>
<circle cx="924.126" cy="1555.06" r="4.01336" fill="#808080"/>
<circle cx="67.9438" cy="1555.13" r="4.01336" fill="#808080"/>
<circle cx="153.562" cy="1555.13" r="4.01336" fill="#808080"/>
<circle cx="239.18" cy="1555.13" r="4.01336" fill="#808080"/>
<circle cx="324.798" cy="1555.13" r="4.01336" fill="#808080"/>
<circle cx="410.417" cy="1555.13" r="4.01336" fill="#808080"/>
<circle cx="496.035" cy="1555.13" r="4.01336" fill="#808080"/>
<circle cx="581.653" cy="1555.13" r="4.01336" fill="#808080"/>
<circle cx="667.271" cy="1555.13" r="4.01336" fill="#808080"/>
<circle cx="752.89" cy="1555.13" r="4.01336" fill="#808080"/>
<circle cx="838.508" cy="1555.13" r="4.01336" fill="#808080"/>
<circle cx="924.126" cy="1555.13" r="4.01336" fill="#808080"/>
</g>
</svg>
