<svg width="1979" height="1917" viewBox="0 0 1979 1917" fill="none" xmlns="http://www.w3.org/2000/svg">
<line x1="1979" y1="0.469601" x2="12" y2="0.469474" stroke="#808080" stroke-width="0.938713"/>
<line x1="1979" y1="120.47" x2="12" y2="120.469" stroke="#808080" stroke-width="0.938713"/>
<line x1="1979" y1="240.469" x2="12" y2="240.469" stroke="#808080" stroke-width="0.938713"/>
<line x1="1979" y1="360.469" x2="12" y2="360.469" stroke="#808080" stroke-width="0.938713"/>
<line x1="1979" y1="481.469" x2="12" y2="481.469" stroke="#808080" stroke-width="0.938713"/>
<line x1="1979" y1="601.469" x2="12" y2="601.469" stroke="#808080" stroke-width="0.938713"/>
<line x1="1979" y1="721.469" x2="12" y2="721.469" stroke="#808080" stroke-width="0.938713"/>
<line x1="1979" y1="841.469" x2="12" y2="841.469" stroke="#808080" stroke-width="0.938713"/>
<line x1="1979" y1="961.469" x2="12" y2="961.469" stroke="#808080" stroke-width="0.938713"/>
<line x1="1979" y1="1081.47" x2="12" y2="1081.47" stroke="#808080" stroke-width="0.938713"/>
<line x1="1979" y1="1202.47" x2="12" y2="1202.47" stroke="#808080" stroke-width="0.938713"/>
<line x1="1979" y1="1322.47" x2="12" y2="1322.47" stroke="#808080" stroke-width="0.938713"/>
<line x1="1979" y1="1442.47" x2="12" y2="1442.47" stroke="#808080" stroke-width="0.938713"/>
<line x1="1979" y1="1562.47" x2="12" y2="1562.47" stroke="#808080" stroke-width="0.938713"/>
<line x1="1979" y1="1682.47" x2="12" y2="1682.47" stroke="#808080" stroke-width="0.938713"/>
<line x1="1979" y1="1802.47" x2="12" y2="1802.47" stroke="#808080" stroke-width="0.938713"/>
<line x1="0.469356" y1="0.000244161" x2="0.469286" y2="1595" stroke="#808080" stroke-width="0.938713"/>
<line x1="240.469" y1="0.000244161" x2="240.469" y2="1903" stroke="#808080" stroke-width="0.938713"/>
<line x1="361.469" y1="0.000244161" x2="361.469" y2="1903" stroke="#808080" stroke-width="0.938713"/>
<line x1="481.469" y1="0.000244161" x2="481.469" y2="1903" stroke="#808080" stroke-width="0.938713"/>
<line x1="601.469" y1="0.000244161" x2="601.469" y2="1903" stroke="#808080" stroke-width="0.938713"/>
<line x1="721.469" y1="0.000244161" x2="721.469" y2="1903" stroke="#808080" stroke-width="0.938713"/>
<line x1="841.469" y1="0.000244161" x2="841.469" y2="1903" stroke="#808080" stroke-width="0.938713"/>
<line x1="961.469" y1="0.000244161" x2="961.469" y2="1903" stroke="#808080" stroke-width="0.938713"/>
<line x1="1082.47" y1="0.000244161" x2="1082.47" y2="1917" stroke="#808080" stroke-width="0.938713"/>
<line x1="1201.47" y1="0.000244161" x2="1201.47" y2="1903" stroke="#808080" stroke-width="0.938713"/>
<line x1="1322.47" y1="0.000244161" x2="1322.47" y2="1903" stroke="#808080" stroke-width="0.938713"/>
<line x1="1442.47" y1="0.000244161" x2="1442.47" y2="1903" stroke="#808080" stroke-width="0.938713"/>
<line x1="1562.47" y1="0.000244161" x2="1562.47" y2="1903" stroke="#808080" stroke-width="0.938713"/>
<line x1="1682.47" y1="0.000244161" x2="1682.47" y2="1903" stroke="#808080" stroke-width="0.938713"/>
<line x1="1802.47" y1="0.000244161" x2="1802.47" y2="1903" stroke="#808080" stroke-width="0.938713"/>
<line x1="1922.47" y1="0.000244161" x2="1922.47" y2="1903" stroke="#808080" stroke-width="0.938713"/>
<line x1="1442.47" y1="0.000244161" x2="1442.47" y2="1595" stroke="#808080" stroke-width="0.938713"/>
<line x1="121.469" y1="0.000244161" x2="121.469" y2="1916" stroke="#808080" stroke-width="0.938713"/>
<circle cx="120.293" cy="120.156" r="5.63228" fill="#808080"/>
<circle cx="240.449" cy="120.156" r="5.63228" fill="#808080"/>
<circle cx="360.603" cy="120.156" r="5.63228" fill="#808080"/>
<circle cx="480.759" cy="120.156" r="5.63228" fill="#808080"/>
<circle cx="600.914" cy="120.156" r="5.63228" fill="#808080"/>
<circle cx="721.069" cy="120.156" r="5.63228" fill="#808080"/>
<circle cx="841.224" cy="120.156" r="5.63228" fill="#808080"/>
<circle cx="961.38" cy="120.156" r="5.63228" fill="#808080"/>
<circle cx="1081.54" cy="120.156" r="5.63228" fill="#808080"/>
<circle cx="1201.69" cy="120.156" r="5.63228" fill="#808080"/>
<circle cx="1321.85" cy="120.156" r="5.63228" fill="#808080"/>
<circle cx="120.293" cy="240.311" r="5.63228" fill="#808080"/>
<circle cx="240.448" cy="240.311" r="5.63228" fill="#808080"/>
<circle cx="360.603" cy="240.311" r="5.63228" fill="#808080"/>
<circle cx="480.759" cy="240.311" r="5.63228" fill="#808080"/>
<circle cx="600.914" cy="240.311" r="5.63228" fill="#808080"/>
<circle cx="721.069" cy="240.311" r="5.63228" fill="#808080"/>
<circle cx="841.224" cy="240.311" r="5.63228" fill="#808080"/>
<circle cx="961.379" cy="240.311" r="5.63228" fill="#808080"/>
<circle cx="1081.54" cy="240.311" r="5.63228" fill="#808080"/>
<circle cx="1201.69" cy="240.311" r="5.63228" fill="#808080"/>
<circle cx="1321.85" cy="240.311" r="5.63228" fill="#808080"/>
<circle cx="120.293" cy="360.466" r="5.63228" fill="#808080"/>
<circle cx="240.448" cy="360.466" r="5.63228" fill="#808080"/>
<circle cx="360.603" cy="360.466" r="5.63228" fill="#808080"/>
<circle cx="480.759" cy="360.466" r="5.63228" fill="#808080"/>
<circle cx="600.914" cy="360.466" r="5.63228" fill="#808080"/>
<circle cx="721.069" cy="360.466" r="5.63228" fill="#808080"/>
<circle cx="841.224" cy="360.466" r="5.63228" fill="#808080"/>
<circle cx="961.379" cy="360.466" r="5.63228" fill="#808080"/>
<circle cx="1081.54" cy="360.466" r="5.63228" fill="#808080"/>
<circle cx="1201.69" cy="360.466" r="5.63228" fill="#808080"/>
<circle cx="1321.85" cy="360.466" r="5.63228" fill="#808080"/>
<circle cx="1201.63" cy="119.633" r="5.63228" transform="rotate(90 1201.63 119.633)" fill="#808080"/>
<circle cx="1201.63" cy="239.787" r="5.63228" transform="rotate(90 1201.63 239.787)" fill="#808080"/>
<circle cx="1201.63" cy="359.943" r="5.63228" transform="rotate(90 1201.63 359.943)" fill="#808080"/>
<circle cx="1201.63" cy="480.098" r="5.63228" transform="rotate(90 1201.63 480.098)" fill="#808080"/>
<circle cx="1201.63" cy="600.253" r="5.63228" transform="rotate(90 1201.63 600.253)" fill="#808080"/>
<circle cx="1201.63" cy="720.408" r="5.63228" transform="rotate(90 1201.63 720.408)" fill="#808080"/>
<circle cx="1201.63" cy="840.563" r="5.63228" transform="rotate(90 1201.63 840.563)" fill="#808080"/>
<circle cx="1201.63" cy="960.719" r="5.63228" transform="rotate(90 1201.63 960.719)" fill="#808080"/>
<circle cx="1201.63" cy="1080.87" r="5.63228" transform="rotate(90 1201.63 1080.87)" fill="#808080"/>
<circle cx="1201.63" cy="1201.03" r="5.63228" transform="rotate(90 1201.63 1201.03)" fill="#808080"/>
<circle cx="1201.63" cy="1321.18" r="5.63228" transform="rotate(90 1201.63 1321.18)" fill="#808080"/>
<circle cx="1321.63" cy="119.633" r="5.63228" transform="rotate(90 1321.63 119.633)" fill="#808080"/>
<circle cx="1321.63" cy="239.787" r="5.63228" transform="rotate(90 1321.63 239.787)" fill="#808080"/>
<circle cx="1321.63" cy="359.943" r="5.63228" transform="rotate(90 1321.63 359.943)" fill="#808080"/>
<circle cx="1321.63" cy="480.098" r="5.63228" transform="rotate(90 1321.63 480.098)" fill="#808080"/>
<circle cx="1321.63" cy="600.253" r="5.63228" transform="rotate(90 1321.63 600.253)" fill="#808080"/>
<circle cx="1321.63" cy="720.408" r="5.63228" transform="rotate(90 1321.63 720.408)" fill="#808080"/>
<circle cx="1321.63" cy="840.563" r="5.63228" transform="rotate(90 1321.63 840.563)" fill="#808080"/>
<circle cx="1321.63" cy="960.719" r="5.63228" transform="rotate(90 1321.63 960.719)" fill="#808080"/>
<circle cx="1321.63" cy="1080.87" r="5.63228" transform="rotate(90 1321.63 1080.87)" fill="#808080"/>
<circle cx="1321.63" cy="1201.03" r="5.63228" transform="rotate(90 1321.63 1201.03)" fill="#808080"/>
<circle cx="1321.63" cy="1321.18" r="5.63228" transform="rotate(90 1321.63 1321.18)" fill="#808080"/>
<circle cx="1441.63" cy="119.633" r="5.63228" transform="rotate(90 1441.63 119.633)" fill="#808080"/>
<circle cx="1441.63" cy="239.787" r="5.63228" transform="rotate(90 1441.63 239.787)" fill="#808080"/>
<circle cx="1441.63" cy="359.943" r="5.63228" transform="rotate(90 1441.63 359.943)" fill="#808080"/>
<circle cx="1441.63" cy="480.098" r="5.63228" transform="rotate(90 1441.63 480.098)" fill="#808080"/>
<circle cx="1441.63" cy="600.253" r="5.63228" transform="rotate(90 1441.63 600.253)" fill="#808080"/>
<circle cx="1441.63" cy="720.408" r="5.63228" transform="rotate(90 1441.63 720.408)" fill="#808080"/>
<circle cx="1441.63" cy="840.563" r="5.63228" transform="rotate(90 1441.63 840.563)" fill="#808080"/>
<circle cx="1441.63" cy="960.719" r="5.63228" transform="rotate(90 1441.63 960.719)" fill="#808080"/>
<circle cx="1441.63" cy="1080.87" r="5.63228" transform="rotate(90 1441.63 1080.87)" fill="#808080"/>
<circle cx="1441.63" cy="1201.03" r="5.63228" transform="rotate(90 1441.63 1201.03)" fill="#808080"/>
<circle cx="1441.63" cy="1321.63" r="5.63228" transform="rotate(90 1441.63 1321.63)" fill="#808080"/>
<circle cx="1441.63" cy="1442.24" r="5.63228" transform="rotate(90 1441.63 1442.24)" fill="#808080"/>
<circle cx="1441.63" cy="1562.84" r="5.63228" transform="rotate(90 1441.63 1562.84)" fill="#808080"/>
<circle cx="1441.63" cy="1321.18" r="5.63228" transform="rotate(90 1441.63 1321.18)" fill="#808080"/>
<circle cx="1561.63" cy="119.633" r="5.63228" transform="rotate(90 1561.63 119.633)" fill="#808080"/>
<circle cx="1561.63" cy="239.787" r="5.63228" transform="rotate(90 1561.63 239.787)" fill="#808080"/>
<circle cx="1561.63" cy="359.943" r="5.63228" transform="rotate(90 1561.63 359.943)" fill="#808080"/>
<circle cx="1561.63" cy="480.098" r="5.63228" transform="rotate(90 1561.63 480.098)" fill="#808080"/>
<circle cx="1561.63" cy="600.253" r="5.63228" transform="rotate(90 1561.63 600.253)" fill="#808080"/>
<circle cx="1561.63" cy="720.408" r="5.63228" transform="rotate(90 1561.63 720.408)" fill="#808080"/>
<circle cx="1561.63" cy="840.563" r="5.63228" transform="rotate(90 1561.63 840.563)" fill="#808080"/>
<circle cx="1561.63" cy="960.719" r="5.63228" transform="rotate(90 1561.63 960.719)" fill="#808080"/>
<circle cx="1561.63" cy="1080.87" r="5.63228" transform="rotate(90 1561.63 1080.87)" fill="#808080"/>
<circle cx="1561.63" cy="1201.03" r="5.63228" transform="rotate(90 1561.63 1201.03)" fill="#808080"/>
<circle cx="1561.63" cy="1321.18" r="5.63228" transform="rotate(90 1561.63 1321.18)" fill="#808080"/>
<circle cx="1681.63" cy="119.633" r="5.63228" transform="rotate(90 1681.63 119.633)" fill="#808080"/>
<circle cx="1681.63" cy="239.787" r="5.63228" transform="rotate(90 1681.63 239.787)" fill="#808080"/>
<circle cx="1681.63" cy="359.943" r="5.63228" transform="rotate(90 1681.63 359.943)" fill="#808080"/>
<circle cx="1681.63" cy="480.098" r="5.63228" transform="rotate(90 1681.63 480.098)" fill="#808080"/>
<circle cx="1681.63" cy="600.253" r="5.63228" transform="rotate(90 1681.63 600.253)" fill="#808080"/>
<circle cx="1681.63" cy="720.408" r="5.63228" transform="rotate(90 1681.63 720.408)" fill="#808080"/>
<circle cx="1681.63" cy="840.563" r="5.63228" transform="rotate(90 1681.63 840.563)" fill="#808080"/>
<circle cx="1681.63" cy="960.719" r="5.63228" transform="rotate(90 1681.63 960.719)" fill="#808080"/>
<circle cx="1681.63" cy="1080.87" r="5.63228" transform="rotate(90 1681.63 1080.87)" fill="#808080"/>
<circle cx="1681.63" cy="1201.03" r="5.63228" transform="rotate(90 1681.63 1201.03)" fill="#808080"/>
<circle cx="1681.63" cy="1321.18" r="5.63228" transform="rotate(90 1681.63 1321.18)" fill="#808080"/>
<circle cx="1801.63" cy="119.633" r="5.63228" transform="rotate(90 1801.63 119.633)" fill="#808080"/>
<circle cx="1801.63" cy="239.787" r="5.63228" transform="rotate(90 1801.63 239.787)" fill="#808080"/>
<circle cx="1801.63" cy="359.943" r="5.63228" transform="rotate(90 1801.63 359.943)" fill="#808080"/>
<circle cx="1801.63" cy="480.098" r="5.63228" transform="rotate(90 1801.63 480.098)" fill="#808080"/>
<circle cx="1801.63" cy="600.253" r="5.63228" transform="rotate(90 1801.63 600.253)" fill="#808080"/>
<circle cx="1801.63" cy="720.408" r="5.63228" transform="rotate(90 1801.63 720.408)" fill="#808080"/>
<circle cx="1801.63" cy="840.563" r="5.63228" transform="rotate(90 1801.63 840.563)" fill="#808080"/>
<circle cx="1801.63" cy="960.719" r="5.63228" transform="rotate(90 1801.63 960.719)" fill="#808080"/>
<circle cx="1801.63" cy="1080.87" r="5.63228" transform="rotate(90 1801.63 1080.87)" fill="#808080"/>
<circle cx="1801.63" cy="1201.03" r="5.63228" transform="rotate(90 1801.63 1201.03)" fill="#808080"/>
<circle cx="1801.63" cy="1321.18" r="5.63228" transform="rotate(90 1801.63 1321.18)" fill="#808080"/>
<circle cx="1921.63" cy="119.633" r="5.63228" transform="rotate(90 1921.63 119.633)" fill="#808080"/>
<circle cx="1921.63" cy="239.787" r="5.63228" transform="rotate(90 1921.63 239.787)" fill="#808080"/>
<circle cx="1921.63" cy="359.943" r="5.63228" transform="rotate(90 1921.63 359.943)" fill="#808080"/>
<circle cx="1921.63" cy="480.098" r="5.63228" transform="rotate(90 1921.63 480.098)" fill="#808080"/>
<circle cx="1921.63" cy="600.253" r="5.63228" transform="rotate(90 1921.63 600.253)" fill="#808080"/>
<circle cx="1921.63" cy="720.408" r="5.63228" transform="rotate(90 1921.63 720.408)" fill="#808080"/>
<circle cx="1921.63" cy="840.563" r="5.63228" transform="rotate(90 1921.63 840.563)" fill="#808080"/>
<circle cx="1921.63" cy="960.719" r="5.63228" transform="rotate(90 1921.63 960.719)" fill="#808080"/>
<circle cx="1921.63" cy="1080.87" r="5.63228" transform="rotate(90 1921.63 1080.87)" fill="#808080"/>
<circle cx="1921.63" cy="1201.03" r="5.63228" transform="rotate(90 1921.63 1201.03)" fill="#808080"/>
<circle cx="1921.63" cy="1321.18" r="5.63228" transform="rotate(90 1921.63 1321.18)" fill="#808080"/>
<circle cx="120.293" cy="480.622" r="5.63228" fill="#808080"/>
<circle cx="240.448" cy="480.622" r="5.63228" fill="#808080"/>
<circle cx="360.603" cy="480.622" r="5.63228" fill="#808080"/>
<circle cx="480.759" cy="480.622" r="5.63228" fill="#808080"/>
<circle cx="600.914" cy="480.622" r="5.63228" fill="#808080"/>
<circle cx="721.069" cy="480.622" r="5.63228" fill="#808080"/>
<circle cx="841.224" cy="480.622" r="5.63228" fill="#808080"/>
<circle cx="961.379" cy="480.622" r="5.63228" fill="#808080"/>
<circle cx="1081.54" cy="480.622" r="5.63228" fill="#808080"/>
<circle cx="1201.69" cy="480.622" r="5.63228" fill="#808080"/>
<circle cx="1321.85" cy="480.622" r="5.63228" fill="#808080"/>
<circle cx="120.293" cy="600.776" r="5.63228" fill="#808080"/>
<circle cx="240.448" cy="600.776" r="5.63228" fill="#808080"/>
<circle cx="360.603" cy="600.776" r="5.63228" fill="#808080"/>
<circle cx="480.759" cy="600.776" r="5.63228" fill="#808080"/>
<circle cx="600.914" cy="600.776" r="5.63228" fill="#808080"/>
<circle cx="721.069" cy="600.776" r="5.63228" fill="#808080"/>
<circle cx="841.224" cy="600.776" r="5.63228" fill="#808080"/>
<circle cx="961.379" cy="600.776" r="5.63228" fill="#808080"/>
<circle cx="1081.54" cy="600.776" r="5.63228" fill="#808080"/>
<circle cx="1201.69" cy="600.776" r="5.63228" fill="#808080"/>
<circle cx="1321.85" cy="600.776" r="5.63228" fill="#808080"/>
<circle cx="120.293" cy="720.932" r="5.63228" fill="#808080"/>
<circle cx="240.448" cy="720.932" r="5.63228" fill="#808080"/>
<circle cx="360.603" cy="720.932" r="5.63228" fill="#808080"/>
<circle cx="480.759" cy="720.932" r="5.63228" fill="#808080"/>
<circle cx="600.914" cy="720.932" r="5.63228" fill="#808080"/>
<circle cx="721.069" cy="720.932" r="5.63228" fill="#808080"/>
<circle cx="841.224" cy="720.932" r="5.63228" fill="#808080"/>
<circle cx="961.379" cy="720.932" r="5.63228" fill="#808080"/>
<circle cx="1081.54" cy="720.932" r="5.63228" fill="#808080"/>
<circle cx="1201.69" cy="720.932" r="5.63228" fill="#808080"/>
<circle cx="1321.85" cy="720.932" r="5.63228" fill="#808080"/>
<circle cx="120.293" cy="841.087" r="5.63228" fill="#808080"/>
<circle cx="240.448" cy="841.087" r="5.63228" fill="#808080"/>
<circle cx="360.603" cy="841.087" r="5.63228" fill="#808080"/>
<circle cx="480.759" cy="841.087" r="5.63228" fill="#808080"/>
<circle cx="600.914" cy="841.087" r="5.63228" fill="#808080"/>
<circle cx="721.069" cy="841.087" r="5.63228" fill="#808080"/>
<circle cx="841.224" cy="841.087" r="5.63228" fill="#808080"/>
<circle cx="961.379" cy="841.087" r="5.63228" fill="#808080"/>
<circle cx="1081.54" cy="841.087" r="5.63228" fill="#808080"/>
<circle cx="1201.69" cy="841.087" r="5.63228" fill="#808080"/>
<circle cx="1321.85" cy="841.087" r="5.63228" fill="#808080"/>
<circle cx="120.293" cy="961.242" r="5.63228" fill="#808080"/>
<circle cx="240.448" cy="961.242" r="5.63228" fill="#808080"/>
<circle cx="360.603" cy="961.242" r="5.63228" fill="#808080"/>
<circle cx="480.759" cy="961.242" r="5.63228" fill="#808080"/>
<circle cx="600.914" cy="961.242" r="5.63228" fill="#808080"/>
<circle cx="721.069" cy="961.242" r="5.63228" fill="#808080"/>
<circle cx="841.224" cy="961.242" r="5.63228" fill="#808080"/>
<circle cx="961.379" cy="961.242" r="5.63228" fill="#808080"/>
<circle cx="1081.54" cy="961.242" r="5.63228" fill="#808080"/>
<circle cx="1201.69" cy="961.242" r="5.63228" fill="#808080"/>
<circle cx="1321.85" cy="961.242" r="5.63228" fill="#808080"/>
<circle cx="120.293" cy="1081.4" r="5.63228" fill="#808080"/>
<circle cx="240.448" cy="1081.4" r="5.63228" fill="#808080"/>
<circle cx="360.603" cy="1081.4" r="5.63228" fill="#808080"/>
<circle cx="480.759" cy="1081.4" r="5.63228" fill="#808080"/>
<circle cx="600.914" cy="1081.4" r="5.63228" fill="#808080"/>
<circle cx="721.069" cy="1081.4" r="5.63228" fill="#808080"/>
<circle cx="841.224" cy="1081.4" r="5.63228" fill="#808080"/>
<circle cx="961.379" cy="1081.4" r="5.63228" fill="#808080"/>
<circle cx="1081.54" cy="1081.4" r="5.63228" fill="#808080"/>
<circle cx="1201.69" cy="1081.4" r="5.63228" fill="#808080"/>
<circle cx="1321.85" cy="1081.4" r="5.63228" fill="#808080"/>
<circle cx="120.293" cy="1201.55" r="5.63228" fill="#808080"/>
<circle cx="240.448" cy="1201.55" r="5.63228" fill="#808080"/>
<circle cx="360.603" cy="1201.55" r="5.63228" fill="#808080"/>
<circle cx="480.759" cy="1201.55" r="5.63228" fill="#808080"/>
<circle cx="600.914" cy="1201.55" r="5.63228" fill="#808080"/>
<circle cx="721.069" cy="1201.55" r="5.63228" fill="#808080"/>
<circle cx="841.224" cy="1201.55" r="5.63228" fill="#808080"/>
<circle cx="961.379" cy="1201.55" r="5.63228" fill="#808080"/>
<circle cx="1081.54" cy="1201.55" r="5.63228" fill="#808080"/>
<circle cx="1201.69" cy="1201.55" r="5.63228" fill="#808080"/>
<circle cx="1321.85" cy="1201.55" r="5.63228" fill="#808080"/>
<circle cx="120.293" cy="1321.71" r="5.63228" fill="#808080"/>
<circle cx="240.448" cy="1321.71" r="5.63228" fill="#808080"/>
<circle cx="360.603" cy="1321.71" r="5.63228" fill="#808080"/>
<circle cx="480.759" cy="1321.71" r="5.63228" fill="#808080"/>
<circle cx="600.914" cy="1321.71" r="5.63228" fill="#808080"/>
<circle cx="721.069" cy="1321.71" r="5.63228" fill="#808080"/>
<circle cx="841.224" cy="1321.71" r="5.63228" fill="#808080"/>
<circle cx="961.379" cy="1321.71" r="5.63228" fill="#808080"/>
<circle cx="1081.54" cy="1321.71" r="5.63228" fill="#808080"/>
<circle cx="1201.69" cy="1321.71" r="5.63228" fill="#808080"/>
<circle cx="1321.85" cy="1321.71" r="5.63228" fill="#808080"/>
<circle cx="120.293" cy="1441.86" r="5.63228" fill="#808080"/>
<circle cx="240.448" cy="1441.86" r="5.63228" fill="#808080"/>
<circle cx="360.603" cy="1441.86" r="5.63228" fill="#808080"/>
<circle cx="480.759" cy="1441.86" r="5.63228" fill="#808080"/>
<circle cx="600.914" cy="1441.86" r="5.63228" fill="#808080"/>
<circle cx="721.069" cy="1441.86" r="5.63228" fill="#808080"/>
<circle cx="841.224" cy="1441.86" r="5.63228" fill="#808080"/>
<circle cx="961.379" cy="1441.86" r="5.63228" fill="#808080"/>
<circle cx="1081.54" cy="1441.86" r="5.63228" fill="#808080"/>
<circle cx="1201.69" cy="1441.86" r="5.63228" fill="#808080"/>
<circle cx="1321.85" cy="1441.86" r="5.63228" fill="#808080"/>
<circle cx="1441.63" cy="1441.86" r="5.63228" fill="#808080"/>
<circle cx="1561.42" cy="1441.86" r="5.63228" fill="#808080"/>
<circle cx="1681.21" cy="1441.86" r="5.63228" fill="#808080"/>
<circle cx="1800.99" cy="1441.86" r="5.63228" fill="#808080"/>
<circle cx="1920.78" cy="1441.86" r="5.63228" fill="#808080"/>
<circle cx="1920.78" cy="1321.63" r="5.63228" fill="#808080"/>
<circle cx="120.293" cy="1562.02" r="5.63228" fill="#808080"/>
<circle cx="240.448" cy="1562.02" r="5.63228" fill="#808080"/>
<circle cx="360.603" cy="1562.02" r="5.63228" fill="#808080"/>
<circle cx="480.759" cy="1562.02" r="5.63228" fill="#808080"/>
<circle cx="600.914" cy="1562.02" r="5.63228" fill="#808080"/>
<circle cx="721.069" cy="1562.02" r="5.63228" fill="#808080"/>
<circle cx="841.224" cy="1562.02" r="5.63228" fill="#808080"/>
<circle cx="961.379" cy="1562.02" r="5.63228" fill="#808080"/>
<circle cx="1081.54" cy="1562.02" r="5.63228" fill="#808080"/>
<circle cx="1201.69" cy="1562.02" r="5.63228" fill="#808080"/>
<circle cx="1321.85" cy="1562.02" r="5.63228" fill="#808080"/>
<circle cx="1441.63" cy="1562.02" r="5.63228" fill="#808080"/>
<circle cx="1561.42" cy="1562.02" r="5.63228" fill="#808080"/>
<circle cx="1681.21" cy="1562.02" r="5.63228" fill="#808080"/>
<circle cx="1800.99" cy="1562.02" r="5.63228" fill="#808080"/>
<circle cx="1920.78" cy="1562.02" r="5.63228" fill="#808080"/>
<circle cx="120.293" cy="1682.17" r="5.63228" fill="#808080"/>
<circle cx="240.448" cy="1682.17" r="5.63228" fill="#808080"/>
<circle cx="360.603" cy="1682.17" r="5.63228" fill="#808080"/>
<circle cx="480.759" cy="1682.17" r="5.63228" fill="#808080"/>
<circle cx="600.914" cy="1682.17" r="5.63228" fill="#808080"/>
<circle cx="721.069" cy="1682.17" r="5.63228" fill="#808080"/>
<circle cx="841.224" cy="1682.17" r="5.63228" fill="#808080"/>
<circle cx="961.379" cy="1682.17" r="5.63228" fill="#808080"/>
<circle cx="1081.54" cy="1682.17" r="5.63228" fill="#808080"/>
<circle cx="1201.69" cy="1682.17" r="5.63228" fill="#808080"/>
<circle cx="1321.85" cy="1682.17" r="5.63228" fill="#808080"/>
<circle cx="120.293" cy="1802.33" r="5.63228" fill="#808080"/>
<circle cx="240.448" cy="1802.33" r="5.63228" fill="#808080"/>
<circle cx="360.603" cy="1802.33" r="5.63228" fill="#808080"/>
<circle cx="480.759" cy="1802.33" r="5.63228" fill="#808080"/>
<circle cx="600.914" cy="1802.33" r="5.63228" fill="#808080"/>
<circle cx="721.069" cy="1802.33" r="5.63228" fill="#808080"/>
<circle cx="841.224" cy="1802.33" r="5.63228" fill="#808080"/>
<circle cx="961.379" cy="1802.33" r="5.63228" fill="#808080"/>
<circle cx="1081.54" cy="1802.33" r="5.63228" fill="#808080"/>
<circle cx="1201.69" cy="1802.33" r="5.63228" fill="#808080"/>
<circle cx="1321.85" cy="1802.33" r="5.63228" fill="#808080"/>
</svg>
