<svg width="320" height="320" viewBox="0 0 320 320" fill="none" xmlns="http://www.w3.org/2000/svg">
<circle cx="159.681" cy="159.681" r="159.065" stroke="#35F036" stroke-width="1.23306"/>
<path d="M317.513 159.065C317.513 190.484 299.918 218.984 271.359 239.652C242.802 260.32 203.32 273.123 159.681 273.123C116.042 273.123 76.5602 260.32 48.0029 239.652C19.4449 218.984 1.84956 190.484 1.84956 159.065C1.84956 127.645 19.4449 99.1454 48.0029 78.477C76.5602 57.8091 116.042 45.0067 159.681 45.0067C203.32 45.0067 242.802 57.8091 271.359 78.477C299.918 99.1454 317.513 127.645 317.513 159.065Z" stroke="#35F036" stroke-width="1.23306"/>
<path d="M159.681 1.23315C191.1 1.23315 219.6 18.8285 240.269 47.3865C260.937 75.9438 273.739 115.426 273.739 159.065C273.739 202.704 260.937 242.186 240.269 270.743C219.6 299.301 191.1 316.896 159.681 316.896C128.262 316.896 99.7619 299.301 79.0934 270.743C58.4255 242.186 45.6231 202.704 45.6231 159.065C45.6231 115.426 58.4255 75.9438 79.0934 47.3865C99.7619 18.8285 128.262 1.23315 159.681 1.23315Z" stroke="#35F036" stroke-width="1.23306"/>
<path d="M317.513 159.065C317.513 168.22 313.181 176.993 305.239 185.029C297.295 193.068 285.769 200.336 271.478 206.453C242.898 218.685 203.373 226.266 159.681 226.266C115.99 226.266 76.464 218.685 47.884 206.453C33.5929 200.336 22.0672 193.068 14.1232 185.029C6.18182 176.993 1.84956 168.22 1.84956 159.065C1.84956 149.91 6.18182 141.136 14.1232 133.1C22.0672 125.061 33.5929 117.794 47.884 111.677C76.464 99.4441 115.99 91.863 159.681 91.863C203.373 91.863 242.898 99.4441 271.478 111.677C285.769 117.794 297.295 125.061 305.239 133.1C313.181 141.136 317.513 149.91 317.513 159.065Z" stroke="#35F036" stroke-width="1.23306"/>
<path d="M159.681 1.23315C168.836 1.23315 177.61 5.56543 185.646 13.5068C193.685 21.4508 200.952 32.9765 207.069 47.2676C219.302 75.8476 226.883 115.373 226.883 159.065C226.883 202.756 219.302 242.282 207.069 270.862C200.952 285.153 193.685 296.679 185.646 304.623C177.61 312.564 168.836 316.896 159.681 316.896C150.526 316.896 141.753 312.564 133.717 304.623C125.678 296.679 118.41 285.153 112.293 270.862C100.061 242.282 92.4795 202.756 92.4795 159.065C92.4795 115.373 100.061 75.8476 112.293 47.2676C118.41 32.9765 125.678 21.4508 133.717 13.5068C141.753 5.56543 150.526 1.23315 159.681 1.23315Z" stroke="#35F036" stroke-width="1.23306"/>
<path d="M317.513 159.065C317.513 160.38 316.608 161.799 314.549 163.286C312.509 164.761 309.46 166.209 305.474 167.602C297.511 170.386 285.953 172.903 271.631 175.021C242.995 179.255 203.415 181.876 159.681 181.876C115.947 181.876 76.367 179.255 47.7316 175.021C33.4092 172.903 21.8517 170.386 13.8881 167.602C9.90248 166.209 6.85373 164.761 4.81322 163.286C2.75427 161.799 1.84956 160.38 1.84956 159.065C1.84956 157.749 2.75427 156.33 4.81322 154.843C6.85373 153.368 9.90248 151.921 13.8881 150.527C21.8517 147.743 33.4092 145.226 47.7316 143.108C76.367 138.874 115.947 136.253 159.681 136.253C203.415 136.253 242.995 138.874 271.631 143.108C285.953 145.226 297.511 147.743 305.474 150.527C309.46 151.921 312.509 153.368 314.549 154.843C316.608 156.33 317.513 157.749 317.513 159.065Z" stroke="#35F036" stroke-width="1.23306"/>
<path d="M159.681 316.896C158.366 316.896 156.947 315.992 155.459 313.933C153.985 311.892 152.537 308.843 151.144 304.858C148.36 296.894 145.843 285.337 143.725 271.014C139.491 242.379 136.87 202.798 136.87 159.065C136.87 115.331 139.491 75.7505 143.725 47.1151C145.843 32.7927 148.36 21.2353 151.144 13.2717C152.537 9.28602 153.985 6.23728 155.459 4.19677C156.947 2.13782 158.366 1.23311 159.681 1.23311C160.997 1.23311 162.415 2.13782 163.903 4.19677C165.377 6.23728 166.825 9.28603 168.218 13.2717C171.002 21.2353 173.52 32.7927 175.637 47.1151C179.871 75.7505 182.493 115.331 182.493 159.065C182.493 202.798 179.871 242.379 175.637 271.014C173.52 285.337 171.002 296.894 168.218 304.858C166.825 308.843 165.377 311.892 163.903 313.933C162.415 315.992 160.997 316.896 159.681 316.896Z" stroke="#35F036" stroke-width="1.23306"/>
</svg>
