<svg width="890" height="244" viewBox="0 0 890 244" fill="none" xmlns="http://www.w3.org/2000/svg">
<path d="M1.72628 81.5988C-5.62582 57.9625 12.2779 51.3743 22.1488 51.0347C8.26139 38.8087 13.6394 33.0359 18.0644 31.6777C48.6981 27.263 117.114 18.2299 145.705 17.4148C194.719 -6.01767 215.142 9.26439 235.564 16.396C280.494 24.5464 510.247 20.471 518.416 20.471C543.74 8.24532 582.747 10.6225 599.085 13.3393C597.723 14.6977 594.592 18.4334 592.958 22.5086C601.127 27.6026 782.887 69.3731 790.035 71.4107C847.218 28.621 881.936 29.0834 886.021 31.121C888.063 56.2217 876.218 84.4514 869.683 95.862C863.148 107.273 865.598 114.201 869.683 125.407L888.063 188.573C889.424 194.346 890.922 205.485 886.021 203.855C856.408 191.63 818.626 146.802 810.458 137.633C797.387 116.442 789.354 111.823 786.972 112.163C762.124 116.238 711 124.592 705.282 125.407C695.07 135.595 667.5 134.577 654.225 134.577C623.592 150.877 616.444 154.953 610.317 153.934C601.331 156.379 537.136 182.121 506.162 194.686C521.139 203.176 552.93 221.379 560.282 226.269C570.493 234.419 572.535 237.476 567.43 241.551C549.458 249.701 474.167 227.967 438.768 216.081C395.54 216.76 302.958 217.711 278.451 216.081C235.564 218.119 140.599 192.648 123.24 185.517C32.3601 143.746 9.89528 102.994 1.72628 81.5988Z" fill="#35F036" fill-opacity="0.4"/>
<path d="M380.664 84.6047L377.103 35.5989C376.076 25.9481 388.613 30.7812 387.805 42.2548C385.717 50.8235 390.71 78.4583 390.086 88.3559C389.497 95.6683 381.01 89.7134 380.664 84.6047Z" fill="#35F036"/>
<path d="M509.859 206.255C503.914 198.497 470.038 184.387 453.843 178.302C444.24 178.302 449.842 184.007 453.843 186.859C471.943 194.656 508.487 209.45 509.859 206.255Z" fill="#35F036"/>
<path d="M523.577 210.07C520.719 207.537 519.501 206.752 515.973 205.911C513.583 205.644 512.279 207.735 517.16 210.07C526.435 214.507 524.543 210.926 523.577 210.07Z" fill="#35F036"/>
<path d="M534.807 215.775C531.949 213.241 530.731 212.457 527.203 211.615C524.813 211.348 523.509 213.44 528.39 215.775C537.665 220.211 535.773 216.631 534.807 215.775Z" fill="#35F036"/>
<path d="M533.774 220.013C531.812 218.338 531.084 217.898 529.506 217.945C528.548 218.258 528.852 220.498 531.468 221.515C536.439 223.449 534.438 220.579 533.774 220.013Z" fill="#35F036"/>
<path d="M540.634 223.741C538.671 222.067 537.944 221.626 536.365 221.673C535.407 221.986 535.711 224.226 538.327 225.243C543.299 227.177 541.297 224.308 540.634 223.741Z" fill="#35F036"/>
<path d="M551.209 224.648C548.079 223.438 546.972 223.166 544.871 223.554C543.681 224.067 544.756 226.188 548.566 226.614C555.806 227.425 552.267 225.057 551.209 224.648Z" fill="#35F036"/>
<path d="M533.229 224.882C531.267 223.208 530.539 222.767 528.96 222.814C528.003 223.127 528.306 225.367 530.922 226.384C535.894 228.318 533.892 225.448 533.229 224.882Z" fill="#35F036"/>
<path d="M540.088 228.61C538.126 226.936 537.398 226.495 535.819 226.542C534.862 226.855 535.165 229.095 537.781 230.112C542.753 232.046 540.751 229.177 540.088 228.61Z" fill="#35F036"/>
<path d="M550.837 229.751C548.143 228.076 547.144 227.636 544.976 227.683C543.662 227.996 544.078 230.236 547.67 231.253C554.495 233.187 551.748 230.317 550.837 229.751Z" fill="#35F036"/>
<path d="M532.086 230.587C530.123 228.912 529.396 228.471 527.817 228.519C526.86 228.831 527.163 231.071 529.779 232.089C534.751 234.023 532.749 231.153 532.086 230.587Z" fill="#35F036"/>
<path d="M539.256 232.473C536.863 231.505 536.033 231.317 534.55 231.861C533.742 232.461 534.74 234.489 537.545 234.627C542.874 234.889 540.065 232.8 539.256 232.473Z" fill="#35F036"/>
<path d="M549.694 233.614C546.409 232.646 545.269 232.458 543.234 233.002C542.124 233.602 543.495 235.63 547.345 235.768C554.662 236.03 550.805 233.941 549.694 233.614Z" fill="#35F036"/>
<path d="M530.943 235.151C528.98 233.476 528.253 233.035 526.674 233.083C525.717 233.395 526.02 235.635 528.636 236.653C533.608 238.586 531.606 235.717 530.943 235.151Z" fill="#35F036"/>
<path d="M538.113 237.026C535.714 236.073 534.883 235.89 533.404 236.444C532.599 237.048 533.61 239.07 536.415 239.191C541.746 239.42 538.924 237.348 538.113 237.026Z" fill="#35F036"/>
<path d="M548.125 238.167C544.832 237.214 543.691 237.031 541.661 237.584C540.555 238.189 541.944 240.211 545.795 240.332C553.113 240.561 549.239 238.489 548.125 238.167Z" fill="#35F036"/>
<path d="M528.087 218.989C522.313 213.87 518.357 211.639 514.83 210.798C512.44 210.531 511.136 212.623 516.016 214.957C533.204 222.991 529.053 219.846 528.087 218.989Z" fill="#35F036"/>
<path d="M526.944 224.26C521.169 219.141 517.214 216.909 513.686 216.068C511.297 215.801 509.993 217.893 514.873 220.227C532.061 228.261 527.91 225.116 526.944 224.26Z" fill="#35F036"/>
<path d="M525.801 229.53C520.026 224.411 516.071 222.18 512.543 221.339C510.154 221.072 508.85 223.164 513.73 225.498C530.917 233.532 526.767 230.387 525.801 229.53Z" fill="#35F036"/>
<path d="M524.658 234.801C518.883 229.682 514.928 227.451 511.4 226.609C509.01 226.343 507.707 228.434 512.587 230.769C529.774 238.802 525.624 235.657 524.658 234.801Z" fill="#35F036"/>
<path d="M510.677 215.681C511.574 208.537 469.537 196.398 452.986 191.358C446.984 191.358 445.841 198.269 453.534 199.897C471.562 207.396 509.512 218.957 510.677 215.681Z" fill="#35F036"/>
<path d="M508.144 226.222C510.43 219.947 465.275 204.544 451.587 205.878C442.162 207.714 448.755 212.242 453.23 214.276C469.276 220.517 507.411 229.62 508.144 226.222Z" fill="#35F036"/>
<path d="M396.849 86.2207L393.191 36.5756C392.145 26.7983 404.696 31.718 403.909 43.338C401.837 52.0133 406.885 80.0143 406.281 90.0384C405.705 97.4441 397.204 91.3959 396.849 86.2207Z" fill="#35F036"/>
<path d="M410.843 87.0699L406.862 35.2705C405.752 25.0668 418.346 30.2782 417.634 42.392C415.616 51.4263 420.849 80.6615 420.309 91.112C419.78 98.8318 411.232 92.4695 410.843 87.0699Z" fill="#35F036"/>
<path d="M424.499 88.8108L420.284 35.452C419.128 24.9397 431.754 30.3622 431.095 42.8333C429.116 52.1275 434.483 82.2562 433.989 93.0153C433.495 100.963 424.913 94.3728 424.499 88.8108Z" fill="#35F036"/>
<path d="M439.683 88.7221L435.468 35.3633C434.311 24.851 446.937 30.2736 446.279 42.7447C444.299 52.0389 449.667 82.1676 449.173 92.9267C448.679 100.874 440.096 94.2842 439.683 88.7221Z" fill="#35F036"/>
<path d="M454.875 83.3128L451.401 34.8909C450.392 25.3557 462.917 30.1097 462.089 41.4494C459.986 49.9208 464.929 77.2211 464.288 87.0031C463.686 94.2304 455.211 88.3606 454.875 83.3128Z" fill="#35F036"/>
<path d="M469.234 83.0118L469.211 34.466C468.882 24.8833 481.038 30.5122 479.405 41.7647C476.706 50.0659 479.695 77.6472 478.361 87.3593C477.247 94.5257 469.211 88.0707 469.234 83.0118Z" fill="#35F036"/>
<path d="M482.207 82.4559L486.61 34.1094C487.155 24.5365 498.748 31.246 496.096 42.3036C492.651 50.3251 493.113 78.0636 490.899 87.6142C489.136 94.6497 481.722 87.4917 482.207 82.4559Z" fill="#35F036"/>
<path d="M500.911 76.9862L505.247 33.6317C505.779 25.0468 517.381 31.0803 514.745 40.9939C511.311 48.1834 511.812 73.0619 509.611 81.6245C507.857 87.932 500.433 81.502 500.911 76.9862Z" fill="#35F036"/>
<path d="M516.831 76.9862L521.167 33.6317C521.7 25.0468 533.301 31.0803 530.665 40.9939C527.231 48.1834 527.732 73.0619 525.531 81.6245C523.777 87.932 516.353 81.502 516.831 76.9862Z" fill="#35F036"/>
<path d="M535.167 74.34L537.009 33.5738C537.048 25.5208 548.975 30.471 546.912 39.8901C543.896 46.8113 545.823 70.0274 544.117 78.1584C542.729 84.1559 534.949 78.5877 535.167 74.34Z" fill="#35F036"/>
<path d="M548.685 74.756L552.679 34.1435C553.144 26.1038 564.793 31.6748 562.235 40.9722C558.857 47.7251 559.554 71.0102 557.421 79.0402C555.718 84.9562 548.243 78.9863 548.685 74.756Z" fill="#35F036"/>
<path d="M562.499 75.1804L566.478 37.1287C566.939 29.5958 578.59 34.82 576.036 43.5306C572.661 49.8566 573.367 71.6747 571.236 79.1978C569.535 84.7403 562.058 79.1439 562.499 75.1804Z" fill="#35F036"/>
<path d="M576.214 75.6663L580.176 40.5488C580.634 33.5967 592.287 38.4235 589.737 46.4617C586.365 52.2987 587.081 72.4356 584.954 79.378C583.255 84.4927 575.776 79.3242 576.214 75.6663Z" fill="#35F036"/>
<path d="M591.073 76.4674L595.016 44.4751C595.47 38.1414 607.126 42.5451 604.58 49.8671C601.211 55.1833 601.937 73.5298 599.814 79.8536C598.118 84.5126 590.636 79.7998 591.073 76.4674Z" fill="#35F036"/>
<path d="M604.788 76.8705L608.715 47.6342C609.166 41.846 620.824 45.8765 618.282 52.5669C614.915 57.4237 615.651 74.1912 613.531 79.9696C611.837 84.2267 604.353 79.9158 604.788 76.8705Z" fill="#35F036"/>
<path d="M618.503 77.8138L622.411 51.8818C622.858 46.7475 634.519 50.3306 631.98 56.2637C628.617 60.5698 629.364 75.4443 627.248 80.5687C625.557 84.3439 618.07 80.5149 618.503 77.8138Z" fill="#35F036"/>
<path d="M631.076 77.6355L634.97 53.9489C635.415 49.259 647.077 52.538 644.542 57.9566C641.181 61.8884 641.936 75.4765 639.822 80.1565C638.133 83.6042 630.644 80.1027 631.076 77.6355Z" fill="#35F036"/>
<path d="M644.791 77.3649L648.665 57.0491C649.106 53.0264 660.771 55.849 658.241 60.495C654.883 63.8651 655.649 75.5219 653.539 79.5348C651.853 82.4909 644.361 79.4809 644.791 77.3649Z" fill="#35F036"/>
<path d="M659.218 78.7222L661.248 60.0368C661.325 56.3688 673.188 57.7726 671.087 62.2065C668.049 65.5713 669.858 76.0007 668.119 79.8229C666.707 82.6514 658.981 80.671 659.218 78.7222Z" fill="#35F036"/>
<path d="M671.36 79.3881L673.789 63.0184C673.945 59.8051 685.765 61.0326 683.571 64.9173C680.464 67.8657 682.048 77.0019 680.228 80.3507C678.757 82.8289 671.081 81.0954 671.36 79.3881Z" fill="#35F036"/>
<path d="M684.24 81.9897L686.385 65.5805C686.485 62.3649 698.325 63.388 696.199 67.31C693.143 70.3116 694.885 79.4191 693.124 82.7988C691.695 85.3021 683.99 83.7016 684.24 81.9897Z" fill="#35F036"/>
<path d="M696.123 84.5702L697.845 68.1114C697.863 64.8943 709.725 65.6138 707.7 69.5891C704.722 72.6679 706.698 81.7278 705.025 85.1515C703.661 87.6905 695.918 86.2879 696.123 84.5702Z" fill="#35F036"/>
<path d="M708.818 87.6242L709.344 71.0843C709.128 67.8743 721.012 67.7358 719.28 71.8468C716.533 75.1325 719.16 84.0261 717.739 87.5616C716.563 90.1924 708.738 89.3522 708.818 87.6242Z" fill="#35F036"/>
<path d="M721.157 90.9096L721.908 74.3783C721.736 71.1657 733.62 71.1887 731.833 75.2757C729.041 78.5238 731.547 87.4522 730.078 90.9681C728.866 93.5827 721.053 92.6363 721.157 90.9096Z" fill="#35F036"/>
<path d="M732.224 93.6313L732.23 77.083C731.913 73.8814 743.787 73.3714 742.185 77.5345C739.543 80.9045 742.448 89.7115 741.138 93.2897C740.045 95.956 732.198 95.361 732.224 93.6313Z" fill="#35F036"/>
<path d="M744.332 96.2649L743.684 79.7293C743.242 76.5426 755.086 75.5661 753.65 79.7888C751.142 83.2601 754.393 91.9461 753.226 95.573C752.239 98.2802 744.374 97.9942 744.332 96.2649Z" fill="#35F036"/>
<path d="M755.564 97.8208L756.208 81.285C756.016 78.0736 767.9 78.0203 766.139 82.1187C763.369 85.3847 765.932 94.2968 764.485 97.8221C763.29 100.444 755.472 99.5482 755.564 97.8208Z" fill="#35F036"/>
<path d="M766.553 98.6981L767.618 82.1841C767.508 78.9688 779.389 79.2174 777.525 83.2698C774.672 86.4643 777.007 95.4387 775.471 98.926C774.209 101.517 766.416 100.423 766.553 98.6981Z" fill="#35F036"/>
<path d="M778.609 99.0662L779.08 82.5246C778.854 79.3154 790.737 79.1381 789.019 83.2547C786.283 86.5493 788.939 95.4343 787.53 98.9744C786.362 101.609 778.535 100.794 778.609 99.0662Z" fill="#35F036"/>
<path d="M301.827 111.491C308.028 99.0985 376.797 100.797 376.797 100.797C405.312 100.797 415.495 140.001 402.61 143.821C376.797 136.461 363.532 153.772 342.954 186.859C310.977 198.747 291.284 126.769 301.827 111.491Z" fill="#35F036"/>
<path d="M367.533 176.591C364.752 191.081 378.965 203.403 378.965 203.403C396.112 209.108 403.543 171.457 437.267 210.249C448.699 218.806 442.411 170.316 432.93 159.973C397.256 137.228 375.535 159.973 367.533 176.591Z" fill="#35F036"/>
<path d="M46.8704 35.1143C70.8773 39.1075 156.234 43.1011 178.336 47.6648L180.051 56.7923C179.479 57.3628 177.193 57.3626 173.763 56.7923C161.76 51.6579 82.8806 45.9532 64.5897 42.5304C53.1582 39.6778 40.5829 35.1143 46.8704 35.1143Z" fill="#1F8B20"/>
<path d="M292.558 104.564C292.008 92.9409 279.926 72.3654 277.221 63.6381C277.221 58.3727 285.795 48.2351 294.369 64.7788C302.346 100.186 301.649 103.023 292.558 104.564Z" fill="#35F036"/>
<path d="M428.776 145.498C422.858 135.472 421.675 111.653 419.148 102.873C416.258 98.4677 403.521 94.6728 405.427 113.201C418.184 147.185 420.324 149.178 428.776 145.498Z" fill="#35F036"/>
<path d="M443.53 150.927C438.799 139.085 440.503 113.451 439.03 103.596C436.66 98.336 424.319 91.815 423.984 111.946C432.678 150.669 434.587 153.21 443.53 150.927Z" fill="#35F036"/>
<path d="M456.74 156.177C453.676 142.678 458.919 115.651 458.819 104.869C457.192 98.8238 445.826 89.6017 442.706 111.011C445.988 153.909 447.534 156.97 456.74 156.177Z" fill="#35F036"/>
<path d="M474.489 156.177C471.425 142.678 476.669 115.651 476.568 104.869C474.941 98.8238 463.576 89.6017 460.455 111.011C463.737 153.909 465.283 156.97 474.489 156.177Z" fill="#35F036"/>
<path d="M492.78 153.896C489.716 140.396 494.959 113.369 494.859 102.587C493.232 96.542 481.867 87.3199 478.746 108.73C482.028 151.627 483.574 154.688 492.78 153.896Z" fill="#35F036"/>
<path d="M509.668 142.012C506.935 129.967 512.789 105.633 512.943 95.9681C511.465 90.5794 500.365 82.5301 496.756 101.786C499.017 140.186 500.484 142.9 509.668 142.012Z" fill="#35F036"/>
<path d="M529.098 135.813C526.635 124.959 532.989 102.83 533.35 94.0789C531.994 89.2276 521.112 82.1383 517.103 99.6319C518.528 134.348 519.932 136.779 529.098 135.813Z" fill="#35F036"/>
<path d="M547.389 131.249C544.926 120.395 551.28 98.2661 551.641 89.5151C550.285 84.6638 539.403 77.5746 535.394 95.0682C536.819 129.785 538.223 132.216 547.389 131.249Z" fill="#35F036"/>
<path d="M567.966 131.249C565.503 120.395 571.858 98.2661 572.218 89.5151C570.862 84.6638 559.98 77.5746 555.971 95.0682C557.396 129.785 558.8 132.216 567.966 131.249Z" fill="#35F036"/>
<path d="M582.541 131.377C581.271 120.321 589.99 99.009 591.299 90.3487C590.478 85.3792 580.43 77.1549 574.545 94.1119C572.192 128.778 573.323 131.347 582.541 131.377Z" fill="#35F036"/>
<path d="M601.428 117.51C600.533 109.719 609.947 94.4512 611.544 88.297C610.891 84.8007 601.146 79.2085 594.706 91.3327C591.194 115.903 592.235 117.694 601.428 117.51Z" fill="#35F036"/>
<path d="M614.853 119.003C615.779 110.711 628.474 97.003 631.449 90.9771C631.621 87.1987 623.417 79.1741 614.345 90.2956C605.253 115.005 605.855 117.102 614.853 119.003Z" fill="#35F036"/>
<path d="M302.644 101.083C302.771 89.437 298.427 68.5587 296.239 59.5752C296.545 54.3258 302.308 49.5502 307.098 59.7888C312.99 95.922 311.797 100.496 302.644 101.083Z" fill="#35F036"/>
<path d="M313.181 99.7485C314.236 88.1878 311.581 66.8066 310.121 57.5611C310.844 52.3857 316.955 48.463 320.901 59.3291C323.879 96.0995 322.328 100.477 313.181 99.7485Z" fill="#35F036"/>
<path d="M324.291 97.8283C326.072 86.4286 324.774 64.823 323.902 55.4452C324.949 50.3702 331.286 47.154 334.532 58.4283C335.182 95.4045 333.36 99.5904 324.291 97.8283Z" fill="#35F036"/>
<path d="M336.072 97.9555C338.359 86.7193 338.029 65.0483 337.579 55.6173C338.85 50.6356 345.319 47.9341 348.056 59.449C347.051 96.4109 345.046 100.443 336.072 97.9555Z" fill="#35F036"/>
<path d="M348.428 98.2024C350.715 86.9661 350.385 65.2951 349.935 55.8642C351.206 50.8824 357.675 48.1809 360.412 59.6958C359.407 96.6578 357.402 100.69 348.428 98.2024Z" fill="#35F036"/>
<path d="M359.86 95.1372C362.147 83.9009 361.817 62.2299 361.367 52.799C362.638 47.8172 369.107 45.1158 371.844 56.6306C370.839 93.5926 368.834 97.6246 359.86 95.1372Z" fill="#35F036"/>
<path d="M203.243 71.2179L186.869 66.9169L185.583 66.1756C183.879 55.7813 180.201 33.9806 179.114 29.9314C184.928 27.2916 198.531 33.4186 212.877 38.2621C231.555 46.2868 225.733 60.5021 220.486 66.6067L203.243 71.2179Z" fill="#35F036"/>
<path d="M288.653 128.101C285.882 129.927 286.362 129.263 273.973 131.708C253.252 135.513 247.334 122.919 246.966 116.146C245.265 109.811 203.632 81.8645 208.631 76.1878C224.44 83.2438 241.211 44.8122 213.204 35.6847C213.204 35.6847 209.923 33.4744 213.203 33.9732C299.514 47.0942 288.653 128.101 288.653 128.101Z" fill="#35F036"/>
<path d="M172.049 71.0537C180.815 72.8956 182.621 65.9674 180.623 61.3557C179.76 56.5413 176.09 39.4348 174.907 32.8323C164.061 26.2514 75.9156 35.4375 56.4434 34.6555C25.902 35.8497 22.5692 41.768 23.9754 44.7109C62.1414 51.7373 161.943 68.5994 172.049 71.0537Z" fill="#35F036"/>
<path d="M121.749 134.526C138.211 144.012 220.062 148.637 239.395 120.339C253.289 143.748 283.175 133.587 287.775 134.526C295.167 149.909 258.931 187.411 247.499 192.563C221.206 204.414 183.667 192.818 175.478 190.282C158.902 185.148 115.461 165.181 108.031 160.047C84.7599 143.967 35.0258 100.128 20.6072 90.9645C6.65936 79.5047 19.493 61.101 26.8649 60.2146C36.6294 80.3881 101.046 130.298 121.749 134.526Z" fill="#35F036"/>
<ellipse cx="202.343" cy="55.0806" rx="8.00227" ry="7.98658" fill="#1F8B20"/>
</svg>
